<?xml version="1.0" encoding="utf-8"?>
<!-- Generator: Adobe Illustrator 26.2.1, SVG Export Plug-In . SVG Version: 6.00 Build 0)  -->
<svg version="1.1" id="Camada_1" xmlns="http://www.w3.org/2000/svg" xmlns:xlink="http://www.w3.org/1999/xlink" x="0px" y="0px"
	 viewBox="0 0 1699 312" style="enable-background:new 0 0 1699 312;" xml:space="preserve">
<style type="text/css">
	.st0{fill-rule:evenodd;clip-rule:evenodd;fill:#FFFFFF;}
	.st1{fill-rule:evenodd;clip-rule:evenodd;fill:#919296;}
</style>
<g>
	<path class="st0" d="M542.23,89.54h-35.05V44.78c0-1.87-1.51-3.37-3.37-3.37h-41.18c-1.87,0-3.37,1.51-3.37,3.37v44.76h-19.73
		c-1.86,0-3.37,1.51-3.37,3.38v28.9c0,1.87,1.51,3.37,3.37,3.37h19.73l-0.12,88.36h0.02v95.05c0,1.86,1.51,3.38,3.37,3.38h41.29
		c1.86,0,3.37-1.51,3.37-3.38v-95.05v-9.42v-78.94h35.05c1.87,0,3.37-1.51,3.37-3.37v-28.9C545.6,91.05,544.1,89.54,542.23,89.54z"
		/>
	<path class="st0" d="M137.41,247.6c-4.49,8.06-10.27,14.26-17.33,18.62c-7.07,4.36-15.68,6.54-25.85,6.54
		c-16.51,0-28.56-5.87-36.15-17.63c-7.6-11.75-11.39-27.53-11.39-47.34v-4.16c0-22.18,3.9-40.18,11.69-53.98
		c7.79-13.8,19.87-20.7,36.25-20.7c9.77,0,18.22,2.22,25.35,6.64c7.13,4.42,12.94,10.59,17.43,18.52V247.6L137.41,247.6z
		 M179.01-0.42c-0.3,0-32.36,0.11-34.93,0.11c-3.67,0-6.65,2.97-6.66,6.64c0-0.01,0-0.01,0-0.02v20.46v89.91
		c-6.73-8.72-14.7-15.42-23.87-20.1c-9.18-4.69-19.58-7.03-31.19-7.03c-26.54,0-47.14,10.47-61.8,31.4
		C5.89,141.87-1.44,169.43-1.44,203.63v4.16c0,31.17,7.32,56.32,21.98,75.47c14.66,19.15,35.13,28.72,61.4,28.72
		c12.81,0,23.98-2.9,33.87-8.02c12.26-6.35,21.59-11.9,21.59-23.27l-0.03,24.39v0.17l0.01-0.02c0,0.07-0.01,0.13-0.01,0.2
		c0,3.62,2.93,6.55,6.55,6.55c0.3,0,32.37-0.11,34.93-0.11c3.67,0,6.65-2.97,6.67-6.64c0,0.01,0,0.01,0,0.02V26.77
		c0,0,0.02-20.57,0.02-20.64C185.56,2.51,182.63-0.42,179.01-0.42z"/>
	<path class="st0" d="M352.33,243.45c-3.17,7.79-9.6,14.72-19.31,20.8c-9.7,6.07-20.57,9.11-32.58,9.11
		c-10.04,0-17.73-2.41-23.08-7.23c-5.35-4.82-8.02-11.32-8.02-19.51c0-9.37,3.96-17.53,11.89-24.46c7.92-6.93,18.88-10.4,32.88-10.4
		h38.22V243.45L352.33,243.45z M400.47,168v-4.77c0-23.77-7.66-41.99-22.98-54.67c-15.32-12.67-35.45-19.01-60.41-19.01
		c-82.85,0-85.2,41.52-85.2,56.99c0,0-0.06,11.63-0.06,11.62c0.01,3.67,2.99,6.64,6.67,6.64c2.57,0,33.25,0.11,33.55,0.11
		c3.62,0,6.55-2.93,6.55-6.55c0-0.34-0.02-2.54-0.02-7.55c0-6.05,4.08-11.71,9.39-15.99c6.47-5.21,15.18-7.82,26.15-7.82
		c12.41,0,21.89,3.17,28.42,9.51c6.54,6.34,9.8,15.12,9.8,26.34v18.82H314.9c-29.71,0-52.75,5.78-69.13,17.33
		c-16.37,11.56-24.56,27.7-24.56,48.43c0,20.07,5.97,35.85,17.92,47.34c11.95,11.49,29.08,17.23,51.4,17.23
		c13.34,0,25.42-3.4,36.25-10.2c10.61-6.66,19.12-14.89,25.55-24.66v31.48c0,1.87,1.51,3.38,3.37,3.38h41.4
		c1.86,0,3.37-1.51,3.37-3.38V168.37C400.49,168.25,400.48,168.12,400.47,168z"/>
	<path class="st0" d="M701.69,243.45c-3.17,7.79-9.6,14.72-19.31,20.8c-9.7,6.07-20.57,9.11-32.58,9.11
		c-10.04,0-17.73-2.41-23.08-7.23c-5.35-4.82-8.02-11.32-8.02-19.51c0-9.37,3.96-17.53,11.89-24.46c7.92-6.93,18.88-10.4,32.88-10.4
		h38.22V243.45L701.69,243.45z M749.83,168v-4.77c0-23.77-7.66-41.99-22.98-54.67c-15.32-12.67-35.46-19.01-60.41-19.01
		c-82.85,0-85.2,41.52-85.2,56.99c0,0-0.06,11.63-0.06,11.62c0.01,3.67,2.99,6.64,6.67,6.64c2.57,0,33.24,0.11,33.55,0.11
		c3.62,0,6.55-2.93,6.55-6.55c0-0.34-0.02-2.54-0.02-7.55c0-6.05,4.08-11.71,9.39-15.99c6.47-5.21,15.18-7.82,26.15-7.82
		c12.41,0,21.89,3.17,28.42,9.51c6.54,6.34,9.8,15.12,9.8,26.34v18.82h-37.43c-29.71,0-52.75,5.78-69.13,17.33
		c-16.37,11.56-24.56,27.7-24.56,48.43c0,20.07,5.97,35.85,17.92,47.34c11.95,11.49,29.08,17.23,51.4,17.23
		c13.34,0,25.41-3.4,36.25-10.2c10.61-6.66,19.12-14.89,25.55-24.66v31.48c0,1.87,1.51,3.38,3.37,3.38h41.4
		c1.86,0,3.37-1.51,3.37-3.38V168.37C749.85,168.25,749.84,168.12,749.83,168z"/>
	<path class="st1" d="M1100.15,113.03l-4.95-0.31c-14.92,0-27.17,4.19-36.74,12.58c-9.58,8.39-16.41,19.91-20.5,34.56v152.12h-23.77
		V89.54h23.97l-0.2,39.62v2.38c6.2-13.2,14.52-23.5,24.96-30.9c10.43-7.39,22.84-11.09,37.23-11.09V113.03z"/>
	<path class="st1" d="M1241.12,278.01c-13.34,8.65-29.12,12.97-47.34,12.97c-14,0-24.99-3.69-32.98-11.09
		c-7.99-7.39-11.99-17.16-11.99-29.31c0-12.94,6.27-24,18.82-33.18c12.55-9.18,28.46-13.76,47.74-13.76h52.89v41
		C1263.51,258.24,1254.46,269.36,1241.12,278.01L1241.12,278.01z M1291.83,264.64V159.26c0-22.44-7.13-39.68-21.39-51.7
		c-14.26-12.01-33.14-18.03-56.64-18.03c-23.51,0-42.56,6.11-57.15,18.32c-14.59,12.22-20.7,25.02-20.7,42.49l0.01,1.19h22.37
		c0-12.01,4.98-21.99,14.95-29.91c9.97-7.92,23.08-11.89,39.32-11.89c17.69,0,31.39,4.36,41.1,13.07
		c9.71,8.72,14.56,20.73,14.56,36.05v26.54h-52.69c-26.81,0-48.6,5.94-65.36,17.83c-16.77,11.88-25.16,27.4-25.16,46.55
		s5.78,34.3,17.33,45.46c11.55,11.16,27.83,16.74,48.82,16.74c17.3,0,32.61-3.8,45.95-11.39c13.34-7.59,23.7-17.2,31.1-28.82v40.21
		h23.7v-40.21C1291.88,269.41,1291.83,267.04,1291.83,264.64z"/>
	<path class="st1" d="M1473.2,110.84c-12.15-14.19-29.84-21.29-53.08-21.29c-15.98,0-29.78,3.6-41.4,10.79
		c-11.3,7-20.41,16.78-27.33,29.33V89.54h-23.77v3.96v93.09v125.39h23.77V186.59v-30.5c4.62-13.99,12.11-25.15,22.48-33.47
		c10.37-8.32,24-12.48,40.9-12.48c16.9,0,29.94,5.08,39.12,15.25c9.18,10.17,13.77,27.53,13.77,52.09v134.49h23.76V177.29
		C1491.42,147.18,1485.35,125.03,1473.2,110.84z"/>
	<path class="st1" d="M1675.23,252.95c-5.68,12.02-13.6,21.43-23.77,28.22c-10.17,6.8-22.91,10.2-38.23,10.2
		c-20.87,0-36.48-7.65-46.84-22.98c-10.37-15.32-15.55-35.91-15.55-61.8v-4.16c0-27.34,5.25-49.55,15.75-66.65
		c10.5-17.1,26.18-25.65,47.04-25.65c15.85,0,28.72,3.83,38.62,11.49c9.9,7.66,17.56,17.56,22.98,29.71v61.08V252.95L1675.23,252.95
		z M1675.23-0.33v125.52c-7.27-11.35-16.41-20.13-27.43-26.34c-11.03-6.21-23.87-9.31-38.52-9.31c-25.89,0-46.05,10.27-60.51,30.8
		c-14.46,20.53-21.69,47.9-21.69,82.1v4.16c0,32.09,7.23,57.67,21.69,76.75c14.46,19.08,34.5,28.62,60.11,28.62
		c15.18,0,28.39-3.04,39.61-9.11c10.72-5.8,19.63-14.02,26.74-24.64v33.76H1699v-4.16v-95.39V-0.33H1675.23z"/>
	<path class="st1" d="M829.59,212.42v-61.08c5.42-12.15,13.07-22.05,22.98-29.71c9.91-7.66,22.78-11.49,38.62-11.49
		c20.87,0,36.55,8.55,47.04,25.65c10.5,17.1,15.75,39.32,15.75,66.65v4.16c0,25.88-5.18,46.48-15.55,61.8
		c-10.36,15.32-25.98,22.98-46.84,22.98c-15.32,0-28.06-3.4-38.23-10.2c-10.17-6.8-18.09-16.21-23.77-28.23V212.42L829.59,212.42z
		 M805.82-0.33v212.75v95.39v4.16h23.77v-33.76c7.11,10.63,16.02,18.85,26.74,24.64c11.22,6.08,24.43,9.11,39.61,9.11
		c25.62,0,45.65-9.54,60.12-28.62c14.46-19.08,21.68-44.67,21.68-76.75v-4.16c0-34.2-7.23-61.57-21.68-82.1
		c-14.46-20.53-34.63-30.8-60.52-30.8c-14.65,0-27.5,3.1-38.53,9.31c-11.02,6.21-20.17,14.99-27.43,26.34V-0.33H805.82z"/>
</g>
</svg>
